<?xml version="1.0" encoding="utf-8"?>
<!-- Generator: Adobe Illustrator 19.0.0, SVG Export Plug-In . SVG Version: 6.00 Build 0)  -->
<svg version="1.1" id="Capa_1" xmlns="http://www.w3.org/2000/svg" xmlns:xlink="http://www.w3.org/1999/xlink" x="0px" y="0px"
	 viewBox="-322 124 314 314" style="enable-background:new -322 124 314 314;" xml:space="preserve">
<style type="text/css">
	.st0{fill:#7E7C8A;}
</style>
<g>
	<path class="st0" d="M-284.8,438c-13.1,0-19-11.3-19-22.4V146.4c0-11.2,5.9-22.4,19-22.4c4.3,0,8.7,1.3,13.1,3.9l233.1,134.6
		c7.9,4.6,12.4,11.3,12.4,18.5s-4.5,14-12.4,18.5l-233.1,134.6C-276.1,436.7-280.6,438-284.8,438z M-284.8,138c-4.4,0-5,5.3-5,8.4
		v269.2c0,3.1,0.7,8.4,5,8.4c1.2,0,3.3-0.3,6.1-2l233.1-134.6c3.4-2,5.4-4.4,5.4-6.4s-2-4.5-5.4-6.4L-278.7,140
		C-281.6,138.3-283.6,138-284.8,138z"/>
</g>
<g>
	<path class="st0" d="M-13.1,131.9v298.2c0,4.4-3.5,7.9-7.9,7.9s-7.9-3.5-7.9-7.9V131.9c0-4.4,3.5-7.9,7.9-7.9
		S-13.1,127.5-13.1,131.9z"/>
</g>
</svg>
