<?xml version="1.0" encoding="utf-8"?>
<!-- Generator: Adobe Illustrator 19.0.0, SVG Export Plug-In . SVG Version: 6.00 Build 0)  -->
<svg version="1.1" id="Capa_1" xmlns="http://www.w3.org/2000/svg" xmlns:xlink="http://www.w3.org/1999/xlink" x="0px" y="0px"
	 viewBox="-452 254 54 54" style="enable-background:new -452 254 54 54;" xml:space="preserve">
<style type="text/css">
	.st0{fill:#7E7C8A;}
</style>
<g>
	<path class="st0" d="M-400.8,275h-5.1c-0.8,0-1.5-0.4-1.8-1.2s-0.2-1.5,0.4-2.1l3.6-3.6c0.5-0.5,0.8-1.2,0.8-2c0-0.7-0.3-1.4-0.8-2
		l-4.6-4.6c-1.1-1-2.9-1.1-3.9,0l-3.6,3.6c-0.6,0.6-1.4,0.7-2.1,0.4c-0.8-0.3-1.2-1-1.2-1.8v-5.1c0-1.5-1.2-2.8-2.8-2.8h-6.4
		c-1.5,0-2.8,1.2-2.8,2.8v5.1c0,0.8-0.4,1.5-1.2,1.8c-0.7,0.3-1.5,0.2-2.1-0.4l-3.6-3.6c-1.1-1.1-2.9-1-3.9,0l-4.6,4.6
		c-0.5,0.5-0.8,1.2-0.8,2c0,0.7,0.3,1.4,0.8,2l3.6,3.6c0.6,0.6,0.7,1.4,0.4,2.1s-1,1.2-1.8,1.2h-5.1c-1.5,0-2.8,1.2-2.8,2.8v6.4
		c0,1.5,1.2,2.8,2.8,2.8h5.1c0.8,0,1.5,0.4,1.8,1.2s0.2,1.5-0.4,2.1l-3.6,3.6c-0.5,0.5-0.8,1.2-0.8,2c0,0.7,0.3,1.4,0.8,2l4.6,4.6
		c1.1,1.1,2.9,1.1,3.9,0l3.6-3.6c0.6-0.6,1.4-0.7,2.1-0.4c0.8,0.3,1.2,1,1.2,1.8v5.1c0,1.5,1.2,2.8,2.8,2.8h6.4
		c1.5,0,2.8-1.2,2.8-2.8v-5.1c0-0.8,0.4-1.5,1.2-1.8c0.8-0.3,1.5-0.2,2.1,0.4l3.6,3.6c1.1,1.1,2.9,1.1,3.9,0l4.6-4.6
		c0.5-0.5,0.8-1.2,0.8-2c0-0.7-0.3-1.4-0.8-2l-3.6-3.6c-0.6-0.6-0.7-1.4-0.4-2.1s1-1.2,1.8-1.2h5.1c1.5,0,2.8-1.2,2.8-2.8v-6.4
		C-398,276.2-399.2,275-400.8,275z M-400,284.2c0,0.4-0.4,0.8-0.8,0.8h-5.1c-1.6,0-3,0.9-3.6,2.4c-0.6,1.5-0.3,3.1,0.9,4.3l3.6,3.6
		c0.3,0.3,0.3,0.8,0,1.1l-4.6,4.6c-0.3,0.3-0.8,0.3-1.1,0l-3.6-3.6c-1.1-1.1-2.8-1.5-4.3-0.9c-1.5,0.6-2.4,2-2.4,3.6v5.1
		c0,0.4-0.4,0.8-0.8,0.8h-6.4c-0.4,0-0.8-0.4-0.8-0.8v-5.1c0-1.6-0.9-3-2.4-3.6c-0.5-0.2-1-0.3-1.5-0.3c-1,0-2,0.4-2.8,1.2l-3.6,3.6
		c-0.3,0.3-0.8,0.3-1.1,0l-4.6-4.6c-0.3-0.3-0.3-0.8,0-1.1l3.6-3.6c1.1-1.1,1.5-2.8,0.9-4.3c-0.6-1.5-2-2.4-3.6-2.4h-5.1
		c-0.4,0-0.8-0.4-0.8-0.8v-6.4c0-0.4,0.4-0.8,0.8-0.8h5.1c1.6,0,3-0.9,3.6-2.4c0.6-1.5,0.3-3.1-0.9-4.3l-3.6-3.6
		c-0.3-0.3-0.3-0.8,0-1.1l4.6-4.6c0.3-0.3,0.8-0.3,1.1,0l3.6,3.6c1.1,1.1,2.8,1.5,4.3,0.9c1.5-0.6,2.4-2,2.4-3.6v-5.1
		c0-0.4,0.4-0.8,0.8-0.8h6.4c0.4,0,0.8,0.4,0.8,0.8v5.1c0,1.6,0.9,3,2.4,3.6c1.5,0.6,3.1,0.3,4.3-0.9l3.6-3.6c0.3-0.3,0.8-0.3,1.1,0
		l4.6,4.6c0.3,0.3,0.3,0.8,0,1.1l-3.6,3.6c-1.1,1.1-1.5,2.8-0.9,4.3c0.6,1.5,2,2.4,3.6,2.4h5.1c0.4,0,0.8,0.3,0.8,0.8V284.2z"/>
	<path class="st0" d="M-425,272c-5,0-9,4-9,9s4,9,9,9s9-4,9-9S-420,272-425,272z M-425,288c-3.9,0-7-3.1-7-7s3.1-7,7-7s7,3.1,7,7
		S-421.1,288-425,288z"/>
</g>
</svg>
