<?xml version="1.0" encoding="utf-8"?>
<!-- Generator: Adobe Illustrator 19.0.0, SVG Export Plug-In . SVG Version: 6.00 Build 0)  -->
<svg version="1.1" id="Capa_1" xmlns="http://www.w3.org/2000/svg" xmlns:xlink="http://www.w3.org/1999/xlink" x="0px" y="0px"
	 viewBox="-322 124 314 314" style="enable-background:new -322 124 314 314;" xml:space="preserve">
<style type="text/css">
	.st0{fill:#7E7C8A;}
</style>
<g>
	<path class="st0" d="M-144.5,159.2c-2.1-1.3-4.7-1.4-6.8-0.3L-268.5,218h-35.2c-10.1,0-18.3,8.2-18.3,18.3v89.4
		c0,10.1,8.2,18.3,18.3,18.3h35.2l117.2,59.1c1,0.5,2.1,0.7,3.1,0.7c1.3,0,2.5-0.3,3.7-1c2.1-1.3,3.3-3.5,3.3-6V165.2
		C-141.1,162.8-142.4,160.5-144.5,159.2z M-308,325.7v-89.4c0-2.3,2-4.3,4.3-4.3h29.9v98h-29.9C-306,330-308,328-308,325.7z
		 M-155.1,385.5l-104.7-52.8V229.3l104.7-52.8V385.5z"/>
	<path class="st0" d="M-36.1,281l26-26c2.7-2.7,2.7-7.2,0-9.9c-2.7-2.7-7.2-2.7-9.9,0l-26,26l-26-26c-2.7-2.7-7.2-2.7-9.9,0
		c-2.7,2.7-2.7,7.2,0,9.9l26,26l-26,26c-2.7,2.7-2.7,7.2,0,9.9c1.4,1.4,3.2,2,4.9,2s3.6-0.7,4.9-2.1l26-26l26,26
		c1.4,1.4,3.2,2.1,5,2.1c1.8,0,3.6-0.7,4.9-2c2.7-2.7,2.7-7.2,0-9.9L-36.1,281z"/>
</g>
</svg>
