<?xml version="1.0" encoding="utf-8"?>
<!-- Generator: Adobe Illustrator 19.0.0, SVG Export Plug-In . SVG Version: 6.00 Build 0)  -->
<svg version="1.1" baseProfile="tiny" id="Capa_1" xmlns="http://www.w3.org/2000/svg" xmlns:xlink="http://www.w3.org/1999/xlink"
	 x="0px" y="0px" viewBox="-2412 1969 277.6 314" xml:space="preserve">
<g>
	<path fill="#B64B38" d="M-2338.7,1969h-16.1c-16.8,0-30.5,13.7-30.5,30.5v253c0,16.8,13.7,30.5,30.5,30.5h16.1
		c16.8,0,30.5-13.7,30.5-30.5v-253C-2308.3,1982.6-2321.9,1969-2338.7,1969z M-2322.3,2252.5c0,9.1-7.4,16.5-16.5,16.5h-16.1
		c-9.1,0-16.5-7.4-16.5-16.5v-253c0-9.1,7.4-16.5,16.5-16.5h16.1c9.1,0,16.5,7.4,16.5,16.5L-2322.3,2252.5L-2322.3,2252.5z"/>
	<path fill="#B64B38" d="M-2191.5,1969h-16.1c-16.8,0-30.5,13.7-30.5,30.5v253c0,16.8,13.7,30.5,30.5,30.5h16.1
		c16.8,0,30.5-13.7,30.5-30.5v-253C-2161.1,1982.6-2174.7,1969-2191.5,1969z M-2175.1,2252.5c0,9.1-7.4,16.5-16.5,16.5h-16.1
		c-9.1,0-16.5-7.4-16.5-16.5v-253c0-9.1,7.4-16.5,16.5-16.5h16.1c9.1,0,16.5,7.4,16.5,16.5V2252.5z"/>
</g>
</svg>
