<?xml version="1.0" encoding="utf-8"?>
<!-- Generator: Adobe Illustrator 19.0.0, SVG Export Plug-In . SVG Version: 6.00 Build 0)  -->
<svg version="1.1" id="Capa_1" xmlns="http://www.w3.org/2000/svg" xmlns:xlink="http://www.w3.org/1999/xlink" x="0px" y="0px"
	 viewBox="-2375.8 1969 277.6 314" style="enable-background:new -2375.8 1969 277.6 314;" xml:space="preserve">
<style type="text/css">
	.st0{fill:#7E7C8A;}
</style>
<g>
	<path class="st0" d="M-2355.8,2283c-13.1,0-19-11.3-19-22.4v-269.2c0-11.2,5.9-22.4,19-22.4c4.3,0,8.7,1.3,13.1,3.9l233.1,134.6
		c7.9,4.6,12.4,11.3,12.4,18.5s-4.5,14-12.4,18.5l-233.1,134.6C-2347.1,2281.7-2351.6,2283-2355.8,2283z M-2355.8,1983
		c-4.4,0-5,5.3-5,8.4v269.2c0,3.1,0.7,8.4,5,8.4c1.2,0,3.3-0.3,6.1-2l233.1-134.6c3.4-2,5.4-4.4,5.4-6.4s-2-4.5-5.4-6.4
		l-233.1-134.6C-2352.6,1983.3-2354.6,1983-2355.8,1983z"/>
</g>
</svg>
