<?xml version="1.0" encoding="utf-8"?>
<!-- Generator: Adobe Illustrator 19.0.0, SVG Export Plug-In . SVG Version: 6.00 Build 0)  -->
<svg version="1.1" id="Capa_1" xmlns="http://www.w3.org/2000/svg" xmlns:xlink="http://www.w3.org/1999/xlink" x="0px" y="0px"
	 viewBox="-322 124 314 314" style="enable-background:new -322 124 314 314;" xml:space="preserve">
<style type="text/css">
	.st0{fill:#7E7C8A;}
</style>
<g>
	<path class="st0" d="M-45.2,434.1l-233.1-134.6c-7.9-4.6-12.4-11.3-12.4-18.5c0-7.2,4.5-14,12.4-18.5l233.1-134.6
		c4.4-2.6,8.9-3.9,13.1-3.9c13.1,0,19,11.3,19,22.4v269.2c0,11.2-5.9,22.4-19,22.4C-36.4,438-40.8,436.7-45.2,434.1z M-38.2,140
		l-233.1,134.6c-3.4,2-5.4,4.4-5.4,6.4s2,4.5,5.4,6.4L-38.2,422c2.9,1.6,4.9,2,6.1,2c4.4,0,5-5.3,5-8.4V146.4c0-3.1-0.7-8.4-5-8.4
		C-33.3,138-35.4,138.3-38.2,140z"/>
</g>
<g>
	<path class="st0" d="M-303.8,131.9v298.2c0,4.4,3.5,7.9,7.9,7.9c4.4,0,7.9-3.5,7.9-7.9V131.9c0-4.4-3.5-7.9-7.9-7.9
		C-300.3,124-303.8,127.5-303.8,131.9z"/>
</g>
</svg>
