<?xml version="1.0" encoding="utf-8"?>
<!-- Generator: Adobe Illustrator 19.0.0, SVG Export Plug-In . SVG Version: 6.00 Build 0)  -->
<svg version="1.1" id="Capa_1" xmlns="http://www.w3.org/2000/svg" xmlns:xlink="http://www.w3.org/1999/xlink" x="0px" y="0px"
	 viewBox="-238 40.4 481.6 481.6" style="enable-background:new -238 40.4 481.6 481.6;" xml:space="preserve">
<style type="text/css">
	.st0{fill:#7E7C8A;}
</style>
<g>
	<path class="st0" d="M143.6,349.8c-27.7,0-52.4,13.2-68.2,33.6l-132.3-73.9c3.1-8.9,4.8-18.5,4.8-28.4c0-10-1.7-19.5-4.9-28.5
		l132.2-73.8c15.7,20.5,40.5,33.8,68.3,33.8c47.4,0,86.1-38.6,86.1-86.1S191,40.4,143.5,40.4S57.4,79,57.4,126.5
		c0,10,1.7,19.6,4.9,28.5l-132.1,73.8c-15.7-20.6-40.5-33.8-68.3-33.8c-47.4,0-86.1,38.6-86.1,86.1s38.7,86.1,86.2,86.1
		c27.8,0,52.6-13.3,68.4-33.9l132.2,73.9c-3.2,9-5,18.7-5,28.7c0,47.4,38.6,86.1,86.1,86.1s86.1-38.6,86.1-86.1
		S191.1,349.8,143.6,349.8z M143.6,67.5c32.6,0,59.1,26.5,59.1,59.1s-26.5,59.1-59.1,59.1s-59.1-26.5-59.1-59.1
		S111.1,67.5,143.6,67.5z M-138,340.2c-32.6,0-59.1-26.5-59.1-59.1S-170.6,222-138,222s59.1,26.5,59.1,59.1S-105.5,340.2-138,340.2z
		 M143.6,494.9c-32.6,0-59.1-26.5-59.1-59.1s26.5-59.1,59.1-59.1s59.1,26.5,59.1,59.1S176.2,494.9,143.6,494.9z"/>
</g>
</svg>
