<?xml version="1.0" encoding="utf-8"?>
<!-- Generator: Adobe Illustrator 19.0.0, SVG Export Plug-In . SVG Version: 6.00 Build 0)  -->
<svg version="1.1" id="Capa_1" xmlns="http://www.w3.org/2000/svg" xmlns:xlink="http://www.w3.org/1999/xlink" x="0px" y="0px"
	 viewBox="-223 25 512 512" style="enable-background:new -223 25 512 512;" xml:space="preserve">
<style type="text/css">
	.st0{fill:#7E7C8A;}
</style>
<g>
	<path class="st0" d="M71.7,78.8c-3.4-2.1-7.6-2.3-11.1-0.5l-194.9,98.2h-58.6c-16.6,0-30.1,13.5-30.1,30.1v148.7
		c0,16.6,13.5,30.1,30.1,30.1h58.6l194.9,98.2c1.6,0.8,3.4,1.2,5.1,1.2c2.1,0,4.2-0.6,6-1.7c3.4-2.1,5.4-5.8,5.4-9.7v-385
		C77.2,84.5,75.1,80.9,71.7,78.8z M-200.2,355.3V206.7c0-4,3.3-7.3,7.3-7.3h49.9v163.3h-49.9C-196.8,362.6-200.2,359.3-200.2,355.3z
		 M54.3,455L-120.1,367V195L54.3,107V455z"/>
	<path class="st0" d="M165.7,220.7c-4.5,4.4-4.6,11.6-0.1,16.1c11,11.2,17.3,27.3,17.3,44.1s-6.3,32.9-17.3,44.1
		c-4.4,4.5-4.4,11.7,0.1,16.1c2.2,2.2,5.1,3.3,8,3.3c3,0,5.9-1.1,8.1-3.4c15.2-15.4,23.9-37.4,23.9-60.1s-8.7-44.7-23.9-60.1
		C177.4,216.4,170.2,216.3,165.7,220.7z"/>
	<path class="st0" d="M252.4,188.8c-4.4-4.5-11.6-4.6-16.1-0.1c-4.5,4.4-4.6,11.6-0.1,16.1c19.1,19.4,30,47.2,30,76.2
		c0,29-10.9,56.8-30,76.2c-4.4,4.5-4.4,11.7,0.1,16.1c2.2,2.2,5.1,3.3,8,3.3c3,0,5.9-1.1,8.1-3.4C275.7,349.6,289,316,289,281
		C289,246,275.7,212.4,252.4,188.8z"/>
</g>
</svg>
