<?xml version="1.0" encoding="utf-8"?>
<!-- Generator: Adobe Illustrator 19.0.0, SVG Export Plug-In . SVG Version: 6.00 Build 0)  -->
<svg version="1.1" id="Capa_1" xmlns="http://www.w3.org/2000/svg" xmlns:xlink="http://www.w3.org/1999/xlink" x="0px" y="0px"
	 viewBox="-2319 1893 465 467" style="enable-background:new -2319 1893 465 467;" xml:space="preserve">
<style type="text/css">
	.st0{opacity:0.9;fill:#0F131A;enable-background:new    ;}
	.st1{opacity:0.9;fill:none;stroke:#B64B38;stroke-width:23;stroke-miterlimit:10;enable-background:new    ;}
	.st2{fill:#B64B38;}
</style>
<circle class="st0" cx="-2089.5" cy="2126.5" r="227"/>
<circle class="st1" cx="-2089.5" cy="2126.5" r="220"/>
<path class="st2" d="M-2030.8,2179.1c0,11.3-9.1,20.4-20.4,20.4l0,0c-11.3,0-20.4-9.1-20.4-20.4v-105.6c0-11.3,9.1-20.4,20.4-20.4
	l0,0c11.3,0,20.4,9.1,20.4,20.4V2179.1z"/>
<path class="st2" d="M-2108.8,2179.1c0,11.3-9.1,20.4-20.4,20.4l0,0c-11.3,0-20.4-9.1-20.4-20.4v-105.6c0-11.3,9.1-20.4,20.4-20.4
	l0,0c11.3,0,20.4,9.1,20.4,20.4V2179.1z"/>
</svg>
